<?xml version="1.0" encoding="UTF-8"?>
<svg version="1.1" xmlns="http://www.w3.org/2000/svg" width="787" height="787">
<path d="M0 0 C3.24679882 -0.00217695 6.49325155 -0.02037164 9.73999023 -0.03930664 C23.50760733 -0.07681346 37.03592995 0.62743887 50.71459961 2.18530273 C52.65604858 2.40440308 52.65604858 2.40440308 54.63671875 2.62792969 C124.25344803 11.06856872 188.66028033 39.66516955 244.71459961 81.18530273 C245.74842773 81.94713867 246.78225586 82.70897461 247.84741211 83.49389648 C252.34972844 86.88827604 252.34972844 86.88827604 253.71459961 88.18530273 C253.71459961 88.84530273 253.71459961 89.50530273 253.71459961 90.18530273 C254.26245117 90.42635742 254.81030273 90.66741211 255.37475586 90.91577148 C258.26249469 92.48257469 260.61844018 94.40691874 263.15209961 96.49780273 C264.07893555 97.25706055 265.00577148 98.01631836 265.96069336 98.79858398 C268.6796037 101.15497294 271.17978602 103.63280224 273.71459961 106.18530273 C275.48064623 107.92968416 277.24761395 109.67313343 279.01538086 111.41577148 C280.5080866 112.8937643 281.99985463 114.37269638 283.49121094 115.85205078 C284.52234388 116.87302155 285.55524867 117.89220569 286.58984375 118.90966797 C288.09053436 120.38622639 289.58478246 121.86904132 291.07788086 123.35327148 C291.96773682 124.23265381 292.85759277 125.11203613 293.77441406 126.01806641 C295.71459961 128.18530273 295.71459961 128.18530273 295.71459961 130.18530273 C296.37459961 130.18530273 297.03459961 130.18530273 297.71459961 130.18530273 C299.32093976 131.91922225 300.85212831 133.72339373 302.33959961 135.56030273 C303.15686523 136.55803711 303.97413086 137.55577148 304.81616211 138.58374023 C306.71459961 141.18530273 306.71459961 141.18530273 306.71459961 143.18530273 C307.37459961 143.18530273 308.03459961 143.18530273 308.71459961 143.18530273 C310.34173688 145.08766211 311.84860031 146.99243134 313.33959961 148.99780273 C313.94094727 149.78960937 313.94094727 149.78960937 314.55444336 150.59741211 C315.95450377 152.45043324 317.33598522 154.3162661 318.71459961 156.18530273 C319.32867676 157.01521729 319.94275391 157.84513184 320.57543945 158.70019531 C335.73754711 179.34822919 348.5753412 201.14931634 359.71459961 224.18530273 C360.05233398 224.88010742 360.39006836 225.57491211 360.73803711 226.29077148 C375.25657098 256.25571544 385.37804161 288.19148523 391.40209961 320.93530273 C391.68778809 322.46574219 391.68778809 322.46574219 391.97924805 324.02709961 C392.62709323 327.73779403 393.19292898 331.45521036 393.71459961 335.18530273 C393.90572327 336.54993652 393.90572327 336.54993652 394.10070801 337.94213867 C396.4373756 355.19454594 397.19495305 372.25910466 397.10571289 389.65551758 C397.0886219 393.01298115 397.09881018 396.36973065 397.11603642 399.72716999 C397.19274296 417.39995371 396.14547314 434.67793272 393.71459961 452.18530273 C393.56124146 453.30766327 393.56124146 453.30766327 393.40478516 454.45269775 C392.86544624 458.3185561 392.23341247 462.15917295 391.52709961 465.99780273 C391.31988281 467.13266113 391.11266602 468.26751953 390.89916992 469.43676758 C385.15386529 499.59343472 375.59401519 528.73578843 362.87280273 556.64282227 C361.82106425 558.95159221 360.78908688 561.2680724 359.76147461 563.58764648 C351.78278428 581.33411191 341.90723977 598.28092945 330.71459961 614.18530273 C330.3064502 614.77069824 329.89830078 615.35609375 329.4777832 615.95922852 C324.1082009 623.65011288 318.51117504 631.14272479 312.74584961 638.54077148 C311.33745467 640.37439336 309.99711463 642.26153021 308.71459961 644.18530273 C308.05459961 644.18530273 307.39459961 644.18530273 306.71459961 644.18530273 C306.45678711 644.74733398 306.19897461 645.30936523 305.93334961 645.88842773 C304.57290184 648.45234852 302.98670999 650.63756639 301.21459961 652.93530273 C300.60616211 653.73452148 299.99772461 654.53374023 299.37084961 655.35717773 C298.82428711 655.96045898 298.27772461 656.56374023 297.71459961 657.18530273 C297.05459961 657.18530273 296.39459961 657.18530273 295.71459961 657.18530273 C295.36582764 658.02194458 295.36582764 658.02194458 295.01000977 658.87548828 C293.37836322 661.7848377 291.35287835 663.78878764 288.98803711 666.14233398 C288.28827255 666.84141121 288.28827255 666.84141121 287.57437134 667.55461121 C286.58653221 668.53943619 285.59627066 669.52183654 284.60375977 670.50195312 C283.11026914 671.97738316 281.62474211 673.46046013 280.14038086 674.94506836 C274.83261262 680.23288592 269.41324558 685.32173081 263.71459961 690.18530273 C262.90249023 690.91620117 262.09038086 691.64709961 261.25366211 692.40014648 C260.62202148 692.96862305 259.99038086 693.53709961 259.33959961 694.12280273 C258.36893555 695.00258789 258.36893555 695.00258789 257.37866211 695.90014648 C255.71459961 697.18530273 255.71459961 697.18530273 253.71459961 697.18530273 C253.71459961 697.84530273 253.71459961 698.50530273 253.71459961 699.18530273 C250.96622099 701.79706604 247.7624499 703.93931829 244.71459961 706.18530273 C244.08134766 706.65436035 243.4480957 707.12341797 242.7956543 707.60668945 C227.05640352 719.23636961 210.93176531 729.87495491 193.71459961 739.18530273 C192.98015625 739.58604004 192.24571289 739.98677734 191.48901367 740.3996582 C163.97539953 755.37253662 135.04182952 767.25590875 104.71459961 775.18530273 C103.72121582 775.44794922 102.72783203 775.7105957 101.7043457 775.98120117 C88.10237714 779.51548496 74.42568238 782.00571628 60.52709961 783.99780273 C59.79792328 784.10312317 59.06874695 784.2084436 58.31747437 784.31695557 C41.34219777 786.73894678 24.56262355 787.37188552 7.42919922 787.37060547 C4.1824004 787.37278242 0.93594767 787.3909771 -2.31079102 787.40991211 C-16.07840811 787.44741893 -29.60673074 786.7431666 -43.28540039 785.18530273 C-45.22684937 784.96620239 -45.22684937 784.96620239 -47.20751953 784.74267578 C-79.44147285 780.83448924 -112.44491879 773.26871043 -142.28540039 760.18530273 C-143.94851842 759.48773417 -145.61266534 758.79261581 -147.27758789 758.09936523 C-158.17139087 753.53751744 -168.81681139 748.65081952 -179.28540039 743.18530273 C-180.8902832 742.3596582 -180.8902832 742.3596582 -182.52758789 741.51733398 C-211.42736502 726.34675273 -237.09093111 706.81573717 -261.7097168 685.54077148 C-263.11686214 684.33028637 -264.53443345 683.13194543 -265.95336914 681.93530273 C-266.68168945 681.31655273 -267.41000977 680.69780273 -268.16040039 680.06030273 C-269.0846582 679.28299805 -269.0846582 679.28299805 -270.02758789 678.48999023 C-271.28540039 677.18530273 -271.28540039 677.18530273 -271.28540039 675.18530273 C-271.94540039 675.18530273 -272.60540039 675.18530273 -273.28540039 675.18530273 C-275.91040039 672.81030273 -275.91040039 672.81030273 -278.28540039 670.18530273 C-278.28540039 669.52530273 -278.28540039 668.86530273 -278.28540039 668.18530273 C-278.94540039 668.18530273 -279.60540039 668.18530273 -280.28540039 668.18530273 C-281.73071289 666.75170898 -281.73071289 666.75170898 -283.41040039 664.74780273 C-286.77918611 660.7690895 -290.25579859 656.90824664 -293.78149414 653.06811523 C-295.28540039 651.18530273 -295.28540039 651.18530273 -295.28540039 649.18530273 C-295.94540039 649.18530273 -296.60540039 649.18530273 -297.28540039 649.18530273 C-299.17693109 646.97111656 -300.96189718 644.7496329 -302.72290039 642.43530273 C-303.21338867 641.80108398 -303.70387695 641.16686523 -304.20922852 640.51342773 C-305.1568642 639.28572158 -306.10023794 638.05471106 -307.03881836 636.82006836 C-308.05504679 635.48738807 -309.09122014 634.16993577 -310.13305664 632.85717773 C-311.28540039 631.18530273 -311.28540039 631.18530273 -311.28540039 629.18530273 C-311.94540039 629.18530273 -312.60540039 629.18530273 -313.28540039 629.18530273 C-314.7855731 627.22834667 -316.15325221 625.27792446 -317.50415039 623.22045898 C-317.91844299 622.60042496 -318.3327356 621.98039093 -318.75958252 621.34156799 C-320.10942434 619.31543328 -321.4480784 617.28221913 -322.78540039 615.24780273 C-323.24047974 614.55958435 -323.69555908 613.87136597 -324.16442871 613.16229248 C-330.86422983 603.0290137 -337.50802844 592.88117072 -343.28540039 582.18530273 C-343.60798828 581.5884668 -343.93057617 580.99163086 -344.26293945 580.37670898 C-366.92477129 537.84289747 -381.2553937 491.88301682 -387.53540039 444.18530273 C-387.78060425 442.32603149 -387.78060425 442.32603149 -388.03076172 440.42919922 C-389.94468916 425.03713954 -390.49296268 409.68271098 -390.47290039 394.18530273 C-390.47262848 393.38437195 -390.47235657 392.58344116 -390.47207642 391.75823975 C-390.4504803 377.81958682 -389.81943634 364.04684196 -388.28540039 350.18530273 C-388.18888184 349.2575 -388.09236328 348.32969727 -387.99291992 347.3737793 C-381.09587547 282.29920225 -356.45112094 219.71504419 -318.80444336 166.37231445 C-317.47825701 164.46296419 -316.22027211 162.52772637 -314.97680664 160.56420898 C-314.41864258 159.77916992 -313.86047852 158.99413086 -313.28540039 158.18530273 C-312.62540039 158.18530273 -311.96540039 158.18530273 -311.28540039 158.18530273 C-310.96249023 157.15469727 -310.96249023 157.15469727 -310.63305664 156.10327148 C-308.89034227 152.32991602 -306.46020562 149.59260493 -303.72290039 146.49780273 C-300.13620336 142.59925041 -300.13620336 142.59925041 -297.28540039 138.18530273 C-296.62540039 138.18530273 -295.96540039 138.18530273 -295.28540039 138.18530273 C-295.06883789 137.6503418 -294.85227539 137.11538086 -294.62915039 136.56420898 C-292.80222817 133.32991936 -290.32656226 130.79857395 -287.78540039 128.12280273 C-285.0740952 125.24685757 -282.48693556 122.48760549 -280.28540039 119.18530273 C-279.62540039 119.18530273 -278.96540039 119.18530273 -278.28540039 119.18530273 C-278.28540039 118.52530273 -278.28540039 117.86530273 -278.28540039 117.18530273 C-275.91040039 114.56030273 -275.91040039 114.56030273 -273.28540039 112.18530273 C-272.62540039 112.18530273 -271.96540039 112.18530273 -271.28540039 112.18530273 C-271.28540039 111.52530273 -271.28540039 110.86530273 -271.28540039 110.18530273 C-269.92211914 108.81030273 -269.92211914 108.81030273 -267.97290039 107.18530273 C-264.62237662 104.34527908 -261.3761611 101.42715121 -258.16040039 98.43530273 C-252.34736169 93.13612381 -246.23211316 88.30131643 -239.99682617 83.51147461 C-238.42129837 82.29060913 -236.86597177 81.04379115 -235.31274414 79.79467773 C-224.84477701 71.46443775 -213.55274255 64.37510175 -202.28540039 57.18530273 C-201.60880371 56.74879395 -200.93220703 56.31228516 -200.23510742 55.86254883 C-192.31536447 50.75353386 -184.1125362 46.41010686 -175.63452148 42.32299805 C-173.06941359 41.08069886 -170.51556146 39.81669177 -167.96118164 38.55249023 C-131.71867165 20.74256475 -93.28616313 9.22256764 -53.34790039 3.43530273 C-52.61072784 3.32793793 -51.8735553 3.22057312 -51.11404419 3.10995483 C-34.05812284 0.65556906 -17.21825829 -0.00128638 0 0 Z " fill="#13338D" transform="translate(390.285400390625,-0.185302734375)"/>
<path d="M0 0 C4.554787 3.80014774 8.95279259 7.65665546 13 12 C13 12.66 13 13.32 13 14 C13.66 14 14.32 14 15 14 C16.60634015 15.73391951 18.1375287 17.538091 19.625 19.375 C20.44226563 20.37273437 21.25953125 21.37046875 22.1015625 22.3984375 C24 25 24 25 24 27 C24.66 27 25.32 27 26 27 C27.62713727 28.90235938 29.1340007 30.8071286 30.625 32.8125 C31.02589844 33.34037109 31.42679688 33.86824219 31.83984375 34.41210938 C33.23990416 36.2651305 34.62138561 38.13096337 36 40 C36.61407715 40.82991455 37.2281543 41.6598291 37.86083984 42.51489258 C53.0229475 63.16292646 65.86074159 84.9640136 77 108 C77.33773437 108.69480469 77.67546875 109.38960938 78.0234375 110.10546875 C92.54197137 140.07041271 102.66344201 172.00618249 108.6875 204.75 C108.87795898 205.77029297 109.06841797 206.79058594 109.26464844 207.84179688 C109.91249362 211.55249129 110.47832937 215.26990763 111 219 C111.12741577 219.90975586 111.25483154 220.81951172 111.3861084 221.75683594 C113.72277599 239.0092432 114.48035344 256.07380192 114.39111328 273.47021484 C114.37402229 276.82767841 114.38421057 280.18442792 114.40143681 283.54186726 C114.47814335 301.21465097 113.43087353 318.49262999 111 336 C110.84664185 337.12236053 110.84664185 337.12236053 110.69018555 338.26739502 C110.15084663 342.13325337 109.51881286 345.97387021 108.8125 349.8125 C108.6052832 350.9473584 108.39806641 352.0822168 108.18457031 353.25146484 C102.43926568 383.40813199 92.87941559 412.5504857 80.15820312 440.45751953 C79.10646464 442.76628948 78.07448727 445.08276967 77.046875 447.40234375 C69.06818467 465.14880917 59.19264016 482.09562672 48 498 C47.59185059 498.58539551 47.18370117 499.17079102 46.76318359 499.77392578 C41.39360129 507.46481015 35.79657543 514.95742206 30.03125 522.35546875 C28.62285506 524.18909063 27.28251502 526.07622747 26 528 C25.34 528 24.68 528 24 528 C23.7421875 528.56203125 23.484375 529.1240625 23.21875 529.703125 C21.85830223 532.26704579 20.27211038 534.45226365 18.5 536.75 C17.8915625 537.54921875 17.283125 538.3484375 16.65625 539.171875 C16.1096875 539.77515625 15.563125 540.3784375 15 541 C14.34 541 13.68 541 13 541 C12.65122803 541.83664185 12.65122803 541.83664185 12.29541016 542.69018555 C10.66376361 545.59953496 8.63827874 547.60348491 6.2734375 549.95703125 C5.57367294 550.65610847 5.57367294 550.65610847 4.85977173 551.36930847 C3.8719326 552.35413345 2.88167105 553.33653381 1.88916016 554.31665039 C0.39566953 555.79208043 -1.0898575 557.2751574 -2.57421875 558.75976562 C-7.88198699 564.04758319 -13.30135403 569.13642807 -19 574 C-19.81210937 574.73089844 -20.62421875 575.46179688 -21.4609375 576.21484375 C-22.09257813 576.78332031 -22.72421875 577.35179687 -23.375 577.9375 C-24.34566406 578.81728516 -24.34566406 578.81728516 -25.3359375 579.71484375 C-27 581 -27 581 -29 581 C-29 581.66 -29 582.32 -29 583 C-31.74837862 585.6117633 -34.95214971 587.75401556 -38 590 C-38.63325195 590.46905762 -39.26650391 590.93811523 -39.91894531 591.42138672 C-55.65819608 603.05106687 -71.7828343 613.68965217 -89 623 C-89.73444336 623.4007373 -90.46888672 623.80147461 -91.22558594 624.21435547 C-118.73920008 639.18723388 -147.67277009 651.07060601 -178 659 C-178.99338379 659.26264648 -179.98676758 659.52529297 -181.01025391 659.79589844 C-194.61222247 663.33018222 -208.28891723 665.82041355 -222.1875 667.8125 C-222.91667633 667.91782043 -223.64585266 668.02314087 -224.39712524 668.13165283 C-241.37240184 670.55364405 -258.15197606 671.18658278 -275.28540039 671.18530273 C-278.53219921 671.18747968 -281.77865194 671.20567437 -285.02539062 671.22460938 C-298.79300772 671.2621162 -312.32133035 670.55786386 -326 669 C-327.94144897 668.78089966 -327.94144897 668.78089966 -329.92211914 668.55737305 C-362.15607246 664.64918651 -395.1595184 657.0834077 -425 644 C-426.66311803 643.30243143 -428.32726495 642.60731308 -429.9921875 641.9140625 C-440.88599048 637.3522147 -451.53141099 632.46551679 -462 627 C-463.60488281 626.17435547 -463.60488281 626.17435547 -465.2421875 625.33203125 C-494.14196463 610.16144999 -519.80553072 590.63043443 -544.42431641 569.35546875 C-545.83146175 568.14498363 -547.24903306 566.94664269 -548.66796875 565.75 C-549.39628906 565.13125 -550.12460937 564.5125 -550.875 563.875 C-551.79925781 563.09769531 -551.79925781 563.09769531 -552.7421875 562.3046875 C-554 561 -554 561 -554 559 C-554.66 559 -555.32 559 -556 559 C-558.625 556.625 -558.625 556.625 -561 554 C-561 553.34 -561 552.68 -561 552 C-561.66 552 -562.32 552 -563 552 C-564.4453125 550.56640625 -564.4453125 550.56640625 -566.125 548.5625 C-569.49378571 544.58378677 -572.9703982 540.7229439 -576.49609375 536.8828125 C-578 535 -578 535 -578 533 C-578.66 533 -579.32 533 -580 533 C-581.8915307 530.78581383 -583.67649679 528.56433016 -585.4375 526.25 C-585.92798828 525.61578125 -586.41847656 524.9815625 -586.92382812 524.328125 C-587.87146381 523.10041885 -588.81483755 521.86940832 -589.75341797 520.63476562 C-590.7696464 519.30208534 -591.80581975 517.98463304 -592.84765625 516.671875 C-594 515 -594 515 -594 513 C-594.66 513 -595.32 513 -596 513 C-597.50017271 511.04304393 -598.86785182 509.09262172 -600.21875 507.03515625 C-600.8401889 506.10510521 -600.8401889 506.10510521 -601.47418213 505.15626526 C-602.82402395 503.13013055 -604.16267801 501.0969164 -605.5 499.0625 C-605.95507935 498.37428162 -606.41015869 497.68606323 -606.87902832 496.97698975 C-613.57882944 486.84371097 -620.22262805 476.69586798 -626 466 C-626.32258789 465.40316406 -626.64517578 464.80632812 -626.97753906 464.19140625 C-649.6393709 421.65759473 -663.96999331 375.69771409 -670.25 328 C-670.49520386 326.14072876 -670.49520386 326.14072876 -670.74536133 324.24389648 C-672.65928877 308.8518368 -673.20756229 293.49740824 -673.1875 278 C-673.18722809 277.19906921 -673.18695618 276.39813843 -673.18667603 275.57293701 C-673.16507991 261.63428408 -672.53403595 247.86153923 -671 234 C-670.90348145 233.07219727 -670.80696289 232.14439453 -670.70751953 231.18847656 C-663.81047508 166.11389951 -639.16572055 103.52974146 -601.51904297 50.18701172 C-600.19285661 48.27766145 -598.93487172 46.34242364 -597.69140625 44.37890625 C-596.85416016 43.20134766 -596.85416016 43.20134766 -596 42 C-595.34 42 -594.68 42 -594 42 C-593.78472656 41.31292969 -593.56945312 40.62585938 -593.34765625 39.91796875 C-591.60494188 36.14461329 -589.17480523 33.4073022 -586.4375 30.3125 C-582.85080297 26.41394767 -582.85080297 26.41394767 -580 22 C-579.34 22 -578.68 22 -578 22 C-577.63261719 21.15695313 -577.63261719 21.15695313 -577.2578125 20.296875 C-575.77073461 17.58134146 -573.95937218 15.53608562 -571.875 13.25 C-571.15054688 12.45078125 -570.42609375 11.6515625 -569.6796875 10.828125 C-569.12539063 10.22484375 -568.57109375 9.6215625 -568 9 C-568 12.73929804 -569.05280711 13.77732727 -571.25 16.75 C-585.92349069 37.22806432 -589.31582134 60.58939953 -589.27415466 85.16712952 C-589.27861806 86.84986511 -589.28393567 88.53259861 -589.29002339 90.21532911 C-589.30408257 94.79818222 -589.30586899 99.38096712 -589.30542648 103.9638387 C-589.30708553 108.9233094 -589.32017239 113.88275288 -589.33161926 118.84220886 C-589.35438768 129.66943557 -589.36238153 140.49664257 -589.36744571 151.32388997 C-589.3707132 158.09913817 -589.3772421 164.87438076 -589.3844471 171.64962578 C-589.40400483 190.44964571 -589.42041307 209.24966044 -589.42332363 228.0496912 C-589.4235112 229.25083814 -589.42369877 230.45198507 -589.42389202 231.6895304 C-589.42425825 234.1240234 -589.42462195 236.5585164 -589.42498314 238.9930094 C-589.42516595 240.20131483 -589.42534876 241.40962026 -589.42553711 242.65454102 C-589.42571766 243.86434124 -589.42589821 245.07414146 -589.42608423 246.32060229 C-589.4296206 265.89300641 -589.45661313 285.46530014 -589.494035 305.03766603 C-589.53224689 325.18641274 -589.55148206 345.33510487 -589.55178314 365.48388857 C-589.55236493 376.77473059 -589.56067539 388.06544101 -589.58978081 399.35624886 C-589.61446804 408.9766417 -589.62146213 418.59685497 -589.60653328 428.21727104 C-589.59943377 433.11224237 -589.59991497 438.00686041 -589.62294388 442.90179062 C-589.91851701 485.87819589 -589.91851701 485.87819589 -576 526 C-575.11441406 527.68222656 -575.11441406 527.68222656 -574.2109375 529.3984375 C-570.47498198 536.17092307 -566.12816817 542.21790434 -561 548 C-560.55978516 548.50144531 -560.11957031 549.00289062 -559.66601562 549.51953125 C-551.01482722 559.2211368 -541.3093781 565.71576026 -530 572 C-528.60974609 572.81791016 -528.60974609 572.81791016 -527.19140625 573.65234375 C-518.06737152 578.71441361 -507.25293911 580.67017651 -497 582 C-497 582.66 -497 583.32 -497 584 C-442.97723107 584.11457965 -388.95447449 584.20261699 -334.93160783 584.25532665 C-328.54587638 584.26157978 -322.16014516 584.26805143 -315.77441406 584.2746582 C-313.86758155 584.27662553 -313.86758155 584.27662553 -311.92222716 584.2786326 C-291.37026489 584.30035705 -270.81837293 584.33976222 -250.2664523 584.38576398 C-229.15997883 584.43261109 -208.05354206 584.46031282 -186.94701874 584.47044247 C-173.9353955 584.47728452 -160.92397104 584.49885199 -147.91240902 584.53958233 C-138.97576068 584.56612269 -130.03921429 584.57397554 -121.10252945 584.56750689 C-115.95549061 584.56432152 -110.80879782 584.56901607 -105.66182137 584.59602737 C-76.475667 584.85218992 -76.475667 584.85218992 -48 579 C-46.83308561 578.67830495 -45.66617123 578.3566099 -44.4638958 578.02516651 C-23.01225198 572.03589225 -4.26591829 557.0383823 8.8125 539.4375 C9.26898926 538.82430908 9.72547852 538.21111816 10.19580078 537.5793457 C13.31969519 533.25302274 15.71421836 528.82198691 18 524 C18.66 524 19.32 524 20 524 C20.103125 523.195625 20.20625 522.39125 20.3125 521.5625 C20.82987032 518.88158109 21.41518385 516.66577018 22.3125 514.125 C24.68904901 507.22834797 26.41184146 500.11550993 28 493 C28.25854906 491.89847959 28.25854906 491.89847959 28.52232134 490.77470624 C30.32386886 482.20388949 30.2855678 473.73358948 30.26742554 465.02554321 C30.27116707 463.31509717 30.27577059 461.60465283 30.28115618 459.89421117 C30.29334001 455.21653241 30.29313117 450.53892542 30.29076743 445.86123443 C30.29035808 440.80711638 30.30140988 435.75302098 30.31088257 430.69891357 C30.32746954 420.80395375 30.33299112 410.90901776 30.33410732 401.01404519 C30.33505914 392.96480818 30.33917614 384.91557899 30.34550858 376.86634445 C30.36311677 354.01729721 30.37234842 331.16826873 30.37084763 308.31921466 C30.37076772 307.08836112 30.3706878 305.85750759 30.37060547 304.58935547 C30.37052371 303.35698876 30.37044195 302.12462205 30.37035771 300.8549109 C30.36954552 280.9011309 30.38866728 260.94742653 30.4168822 240.99366839 C30.44566156 220.47783824 30.45941963 199.96204489 30.45769465 179.44619405 C30.45703236 167.93930262 30.46245337 156.4324904 30.48405075 144.92561722 C30.50232939 135.12445989 30.50655548 125.32341766 30.4930319 115.52225061 C30.4865351 110.529235 30.48626492 105.53643976 30.5037384 100.54344559 C32.31593515 70.12716073 32.31593515 70.12716073 24 42 C23.63492407 40.46554023 23.30656821 38.92221141 23 37.375 C19.88516919 25.52920403 12.3577247 14.6019901 3.8125 5.98046875 C2.05847208 4.06389083 1.02358463 2.37237062 0 0 Z " fill="#F5F5F5" transform="translate(673,116)"/>
<path d="M0 0 C25.08 0 50.16 0 76 0 C76.99 2.97 76.99 2.97 78 6 C78.65184877 7.69327903 79.31788221 9.38118622 80 11.0625 C80.33 11.87847656 80.66 12.69445312 81 13.53515625 C81.6794119 15.20980041 82.3658705 16.88159939 83.05859375 18.55078125 C83.90060672 20.7414125 84.53011407 22.84334601 85.0625 25.125 C85.93604888 29.68249709 85.93604888 29.68249709 88.43164062 33.359375 C90.46243833 35.4837462 91.11626732 37.4820413 92.09375 40.25 C92.67177368 41.85609131 92.67177368 41.85609131 93.26147461 43.49462891 C93.67018799 44.65140137 94.07890137 45.80817383 94.5 47 C98.51091744 58.11513377 102.79170754 69.06452399 107.33203125 79.9765625 C114.5432909 97.38599407 114.5432909 97.38599407 114 103 C114.66 103 115.32 103 116 103 C117.60355101 106.50776784 118.22036864 109.14354879 118 113 C118.66 113 119.32 113 120 113 C121.62225185 117.13835012 123.23938533 121.27865698 124.85229492 125.4206543 C125.39882703 126.8222112 125.94662856 128.22327391 126.49584961 129.6237793 C129.41002819 137.05747222 132.20370087 144.48609269 134.64453125 152.08984375 C136.31549459 157.21693871 138.19612026 161.42555438 141 166 C142.17816365 168.70944073 143.18910426 171.47005135 144.1875 174.25 C144.44724609 174.95640625 144.70699219 175.6628125 144.97460938 176.390625 C146.02195585 179.24850066 147.03746089 182.11238266 148 185 C147.54354253 179.1141011 146.90380304 173.32523112 145.9375 167.5 C142.02398872 140.2833079 146.66481854 107.68571268 163 85 C164.82757228 82.57053266 166.67481868 80.17852549 168.6171875 77.83984375 C170.19535391 75.94259439 170.19535391 75.94259439 171 73 C172.53125 71.45703125 172.53125 71.45703125 174.5 69.8125 C178.37507068 66.54269171 182.11250567 63.15307973 185.82421875 59.69921875 C188.1359639 57.89381635 190.26232461 57.00909357 193 56 C193.70125 55.46375 194.4025 54.9275 195.125 54.375 C197 53 197 53 200 53 C200.03609375 52.40703125 200.0721875 51.8140625 200.109375 51.203125 C201.49813403 47.7677737 203.94282907 47.21820593 207.25 45.75 C208.95929688 44.96882813 208.95929688 44.96882813 210.703125 44.171875 C213.76724562 43.0827326 215.79571959 42.73498433 219 43 C219 42.34 219 41.68 219 41 C257.83932773 25.12335945 305.59782612 31.64820902 344 45 C343.46169184 54.5107804 342.17704657 63.75270545 340.5 73.125 C340.16162109 75.0740625 340.16162109 75.0740625 339.81640625 77.0625 C338.14933036 86.55200893 338.14933036 86.55200893 337 90 C335.37478005 89.70956145 333.74983921 89.41756108 332.125 89.125 C330.59746094 88.85042969 330.59746094 88.85042969 329.0390625 88.5703125 C326.51048391 88.09579775 324.01053558 87.55888248 321.5 87 C291.97742704 81.13273787 260.20688692 81.77633612 234 98 C228.4394806 102.2431289 225.3912184 106.39568252 223 113 C222.17805526 114.58927522 221.34367525 116.17215306 220.5 117.75 C217.84900525 123.02014572 216.26861133 128.25160492 215 134 C214.690625 135.38638672 214.690625 135.38638672 214.375 136.80078125 C210.52639201 156.55162366 213.00982291 177.87526647 224 195 C233.84419946 208.06561025 246.03691098 215.62319271 262 219 C262 219.66 262 220.32 262 221 C262.66 221 263.32 221 264 221 C264 221.66 264 222.32 264 223 C290.22155282 223.35927507 312.97614141 220.84883824 338 213 C338.83830895 217.98011381 339.67441191 222.9605913 340.50854492 227.94140625 C340.79213042 229.63291223 341.07630006 231.32432038 341.36108398 233.015625 C341.77223901 235.45807309 342.18123523 237.90087476 342.58984375 240.34375 C342.71592514 241.08991577 342.84200653 241.83608154 342.97190857 242.6048584 C343.76999823 247.3923921 344.42611366 252.18030724 345 257 C309.7234607 274.13692348 259.99905646 275.49913812 223 263 C209.81329728 258.16713081 197.48248384 251.85725618 187.25390625 242.11328125 C183.00920186 238.08940072 183.00920186 238.08940072 178.03491211 235.10009766 C174.31248368 233.08770863 172.14198013 229.51089474 169.625 226.1875 C169.04790283 225.43154541 168.47080566 224.67559082 167.8762207 223.89672852 C163.21074053 217.62168741 159.79119763 211.32848693 157 204 C155.39476037 208.83460407 156.88286384 212.452591 158.625 217 C158.90206787 217.75039551 159.17913574 218.50079102 159.46459961 219.27392578 C160.29795574 221.52057173 161.14807739 223.76034163 162 226 C162.44214844 227.19367188 162.88429688 228.38734375 163.33984375 229.6171875 C165.57852028 235.58222336 168.05328654 241.37693602 170.73046875 247.15625 C177 261.2 177 261.2 177 266 C154.89 266 132.78 266 110 266 C108.35 261.05 106.7 256.1 105 251 C104.01997771 248.32177116 103.02527812 245.65986438 102 243 C101.29137841 241.10736551 100.58450486 239.21407607 99.87890625 237.3203125 C99.10679121 235.25520072 98.33465538 233.1900967 97.5625 231.125 C97.18029297 230.10019531 96.79808594 229.07539063 96.40429688 228.01953125 C94.26148352 222.29323546 92.05791996 216.60407656 89.71459961 210.95654297 C89 209 89 209 89 207 C75.73542668 206.93060717 62.47089627 206.87724333 49.20617867 206.84456348 C43.0473809 206.82888185 36.88870696 206.80759802 30.72998047 206.77368164 C24.7907476 206.74117728 18.85163411 206.72316582 12.91231918 206.71536827 C10.6420084 206.70980869 8.37170444 206.69895281 6.10144424 206.68280983 C2.93092784 206.66115429 -0.23908997 206.6580281 -3.40966797 206.65942383 C-4.35625275 206.648638 -5.30283752 206.63785217 -6.27810669 206.6267395 C-7.56959625 206.63292549 -7.56959625 206.63292549 -8.88717651 206.63923645 C-10.01268575 206.63508838 -10.01268575 206.63508838 -11.16093254 206.63085651 C-13.41576047 206.85814115 -13.41576047 206.85814115 -15 210 C-15.66 210 -16.32 210 -17 210 C-17.17015625 210.68964844 -17.3403125 211.37929688 -17.515625 212.08984375 C-18.70372626 216.69689596 -19.92769821 221.11602896 -21.9375 225.4375 C-24.35920987 230.79461577 -26.14087741 236.42263223 -28 242 C-31.96 253.88 -31.96 253.88 -36 266 C-57.78 266 -79.56 266 -102 266 C-99.76470588 254.82352941 -99.76470588 254.82352941 -97.25 249.375 C-94.99346211 244.31969788 -92.91145223 239.25766447 -91 234.0625 C-88.52926479 227.35563492 -85.90379562 220.72529533 -83.19921875 214.109375 C-82.27900077 211.72340264 -81.52466848 209.4937184 -81 207 C-80.34 207 -79.68 207 -79 207 C-78.97421875 206.443125 -78.9484375 205.88625 -78.921875 205.3125 C-78.55527957 200.38012515 -77.63337175 196.78867931 -75.2265625 192.390625 C-72.71219443 187.49000953 -70.84862754 182.28309368 -68.84716797 177.15625 C-67.9530446 174.88048699 -67.04192978 172.61199148 -66.12890625 170.34375 C-65.50227693 168.77096367 -64.87596917 167.19804919 -64.25 165.625 C-63.95633545 164.90070801 -63.6626709 164.17641602 -63.36010742 163.43017578 C-61.89245536 159.70906893 -60.76448812 156.13879102 -59.984375 152.2109375 C-59.26988449 148.71478247 -58.29038718 146.77410762 -56 144 C-55.07746544 141.77715707 -54.22900955 139.52279857 -53.4375 137.25 C-52.81681641 135.49429688 -52.81681641 135.49429688 -52.18359375 133.703125 C-50.95285377 130.01635229 -50.95285377 130.01635229 -50.109375 126.23510742 C-49.10849404 122.18727079 -47.67844656 118.37564222 -46.06640625 114.53515625 C-45.78780258 113.85754745 -45.50919891 113.17993866 -45.22215271 112.48179626 C-44.34077227 110.33985206 -43.45222592 108.20098953 -42.5625 106.0625 C-37.79039268 94.67869707 -37.79039268 94.67869707 -33.6784668 83.04663086 C-32.35111237 79.04259627 -30.7145196 75.15555725 -29.125 71.25 C-28.412117 69.48333241 -27.69987702 67.71640522 -26.98828125 65.94921875 C-26.47515381 64.67570557 -26.47515381 64.67570557 -25.95166016 63.37646484 C-24.71225092 60.28143932 -23.50678757 57.17523047 -22.3125 54.0625 C-21.9309375 53.06863281 -21.549375 52.07476562 -21.15625 51.05078125 C-20.31196716 48.82312957 -19.48037113 46.59065775 -18.65625 44.35546875 C-17.99109375 42.57076172 -17.99109375 42.57076172 -17.3125 40.75 C-16.91675781 39.67234375 -16.52101563 38.5946875 -16.11328125 37.484375 C-15 35 -15 35 -13 34 C-11.89075356 31.43946326 -11.89075356 31.43946326 -10.9375 28.375 C-10.42509766 26.83972656 -10.42509766 26.83972656 -9.90234375 25.2734375 C-8.76685029 21.42409761 -8.76685029 21.42409761 -8 15 C-5.36 10.05 -2.72 5.1 0 0 Z " fill="#FBFCFD" transform="translate(268,228)"/>
<path d="M0 0 C3.24679882 -0.00217695 6.49325155 -0.02037164 9.73999023 -0.03930664 C23.50760733 -0.07681346 37.03592995 0.62743887 50.71459961 2.18530273 C52.65604858 2.40440308 52.65604858 2.40440308 54.63671875 2.62792969 C124.25344803 11.06856872 188.66028033 39.66516955 244.71459961 81.18530273 C245.74842773 81.94713867 246.78225586 82.70897461 247.84741211 83.49389648 C252.34972844 86.88827604 252.34972844 86.88827604 253.71459961 88.18530273 C253.71459961 88.84530273 253.71459961 89.50530273 253.71459961 90.18530273 C254.26245117 90.42635742 254.81030273 90.66741211 255.37475586 90.91577148 C258.26249469 92.48257469 260.61844018 94.40691874 263.15209961 96.49780273 C264.07893555 97.25706055 265.00577148 98.01631836 265.96069336 98.79858398 C269.97754101 102.27985195 273.64995874 105.83028677 276.71459961 110.18530273 C273.55106902 108.71574505 270.84677524 106.92058648 268.02709961 104.87280273 C255.70960585 96.187621 242.33669299 90.76550611 227.71459961 87.18530273 C226.31200093 86.81924334 226.31200093 86.81924334 224.88106692 86.4457888 C215.15344746 84.10269687 206.02465316 83.75846092 196.06893921 83.79762268 C194.32219147 83.79344166 192.57544644 83.78795995 190.82870638 83.78130287 C186.06462733 83.76692987 181.30072247 83.77106737 176.53663421 83.77846968 C171.38442245 83.78321947 166.23224741 83.7706754 161.08004761 83.76045227 C150.99932919 83.743293 140.91867318 83.74241848 130.83794396 83.74766517 C122.63859547 83.75171428 114.43926537 83.75025453 106.23991776 83.74491692 C105.07083591 83.74416849 103.90175406 83.74342007 102.69724549 83.74264897 C100.32185358 83.74111741 97.94646169 83.73957906 95.57106979 83.738034 C73.31474721 83.72431877 51.05845982 83.72973927 28.80213805 83.74121922 C8.47281212 83.75114553 -11.85642271 83.73821956 -32.18573458 83.71428502 C-53.09151325 83.68985851 -73.99724955 83.68029519 -94.9030422 83.68693775 C-106.62726895 83.69042273 -118.35142572 83.68824594 -130.07564163 83.67068672 C-140.05865127 83.65592007 -150.04154167 83.65538717 -160.02454908 83.67275763 C-165.11061798 83.68123427 -170.19647427 83.68349949 -175.28253174 83.66810608 C-179.95239175 83.65414828 -184.62185925 83.65916267 -189.29169719 83.67834532 C-190.96726168 83.68207203 -192.64285847 83.67928138 -194.3183939 83.66873366 C-203.36520576 83.61590228 -211.97821274 84.23883469 -220.87337303 85.96662807 C-221.68089009 86.12163322 -222.48840716 86.27663836 -223.32039443 86.43634063 C-228.31982379 87.49836212 -232.68197994 89.10576556 -237.25691698 91.38830302 C-239.28540039 92.18530273 -239.28540039 92.18530273 -243.28540039 92.18530273 C-243.28540039 92.84530273 -243.28540039 93.50530273 -243.28540039 94.18530273 C-244.21352539 94.53592773 -245.14165039 94.88655273 -246.09790039 95.24780273 C-250.6316595 97.17233721 -254.63036046 99.86480264 -258.73461914 102.56420898 C-260.87799904 103.92638763 -262.99095272 105.10524657 -265.28540039 106.18530273 C-261.5723334 101.19186782 -257.22099852 97.54213538 -252.36743164 93.66967773 C-249.72530273 91.53990082 -247.15022551 89.36055788 -244.5859375 87.13964844 C-231.43500208 75.79206514 -216.89905027 66.52240909 -202.28540039 57.18530273 C-201.34301514 56.5774292 -201.34301514 56.5774292 -200.3815918 55.95727539 C-192.3965748 50.81341222 -184.17710656 46.44123514 -175.63452148 42.32299805 C-173.06941359 41.08069886 -170.51556146 39.81669177 -167.96118164 38.55249023 C-131.71867165 20.74256475 -93.28616313 9.22256764 -53.34790039 3.43530273 C-52.61072784 3.32793793 -51.8735553 3.22057312 -51.11404419 3.10995483 C-34.05812284 0.65556906 -17.21825829 -0.00128638 0 0 Z " fill="#F4F4F5" transform="translate(390.285400390625,-0.185302734375)"/>
<path d="M0 0 C-0.53830816 9.5107804 -1.82295343 18.75270545 -3.5 28.125 C-3.83837891 30.0740625 -3.83837891 30.0740625 -4.18359375 32.0625 C-5.85066964 41.55200893 -5.85066964 41.55200893 -7 45 C-8.62521995 44.70956145 -10.25016079 44.41756108 -11.875 44.125 C-12.89335938 43.94195312 -13.91171875 43.75890625 -14.9609375 43.5703125 C-17.48951609 43.09579775 -19.98946442 42.55888248 -22.5 42 C-52.02257296 36.13273787 -83.79311308 36.77633612 -110 53 C-115.5605194 57.2431289 -118.6087816 61.39568252 -121 68 C-121.82194474 69.58927522 -122.65632475 71.17215306 -123.5 72.75 C-126.15099475 78.02014572 -127.73138867 83.25160492 -129 89 C-129.20625 89.92425781 -129.4125 90.84851563 -129.625 91.80078125 C-133.47360799 111.55162366 -130.99017709 132.87526647 -120 150 C-110.15580054 163.06561025 -97.96308902 170.62319271 -82 174 C-82 174.66 -82 175.32 -82 176 C-81.34 176 -80.68 176 -80 176 C-80 176.66 -80 177.32 -80 178 C-53.77844718 178.35927507 -31.02385859 175.84883824 -6 168 C-5.16169105 172.98011381 -4.32558809 177.9605913 -3.49145508 182.94140625 C-3.20786958 184.63291223 -2.92369994 186.32432038 -2.63891602 188.015625 C-2.22776099 190.45807309 -1.81876477 192.90087476 -1.41015625 195.34375 C-1.28407486 196.08991577 -1.15799347 196.83608154 -1.02809143 197.6048584 C-0.23000177 202.3923921 0.42611366 207.18030724 1 212 C-34.2765393 229.13692348 -84.00094354 230.49913812 -121 218 C-134.18670272 213.16713081 -146.51751616 206.85725618 -156.74609375 197.11328125 C-160.99079814 193.08940072 -160.99079814 193.08940072 -165.96508789 190.10009766 C-169.68751632 188.08770863 -171.85801987 184.51089474 -174.375 181.1875 C-175.24064575 180.05356812 -175.24064575 180.05356812 -176.1237793 178.89672852 C-180.78925947 172.62168741 -184.20880237 166.32848693 -187 159 C-188.485 159.99 -188.485 159.99 -190 161 C-190.73186424 159.20706937 -191.46360835 157.41408971 -192.1953125 155.62109375 C-192.89479004 153.90708374 -192.89479004 153.90708374 -193.60839844 152.15844727 C-194.62159138 149.67411758 -195.63252035 147.18888339 -196.64160156 144.70288086 C-199.83344058 136.83960018 -199.83344058 136.83960018 -203.1015625 129.0078125 C-203.38757324 128.32275635 -203.67358398 127.6377002 -203.96826172 126.93188477 C-204.69564997 125.19246819 -205.43335172 123.4573744 -206.171875 121.72265625 C-207.02381286 118.92170962 -207.06090728 117.68461295 -206 115 C-203.57639903 119.62225695 -201.66802497 124.29947967 -199.875 129.1875 C-199.61074219 129.89841797 -199.34648437 130.60933594 -199.07421875 131.34179688 C-198.0089212 134.21593721 -196.96935967 137.09192098 -196 140 C-196.45645747 134.1141011 -197.09619696 128.32523112 -198.0625 122.5 C-201.97601128 95.2833079 -197.33518146 62.68571268 -181 40 C-179.17242772 37.57053266 -177.32518132 35.17852549 -175.3828125 32.83984375 C-173.80464609 30.94259439 -173.80464609 30.94259439 -173 28 C-171.46875 26.45703125 -171.46875 26.45703125 -169.5 24.8125 C-165.62492932 21.54269171 -161.88749433 18.15307973 -158.17578125 14.69921875 C-155.8640361 12.89381635 -153.73767539 12.00909357 -151 11 C-150.29875 10.46375 -149.5975 9.9275 -148.875 9.375 C-147 8 -147 8 -144 8 C-143.96390625 7.40703125 -143.9278125 6.8140625 -143.890625 6.203125 C-142.50186597 2.7677737 -140.05717093 2.21820593 -136.75 0.75 C-135.61046875 0.22921875 -134.4709375 -0.2915625 -133.296875 -0.828125 C-130.23275438 -1.9172674 -128.20428041 -2.26501567 -125 -2 C-125 -2.66 -125 -3.32 -125 -4 C-86.16067227 -19.87664055 -38.40217388 -13.35179098 0 0 Z " fill="#3BACF7" transform="translate(612,273)"/>
<path d="M0 0 C0.66 0 1.32 0 2 0 C3.77951746 5.45813535 5.55761204 10.91673157 7.33447266 16.37573242 C7.93728581 18.22709218 8.54046639 20.07833235 9.14404297 21.92944336 C14.81368318 39.31916072 14.81368318 39.31916072 17.0859375 46.8515625 C19.07374373 53.37641065 21.35188105 59.78903743 23.66171265 66.20471191 C24.87981068 69.590767 26.08634975 72.9809344 27.29296875 76.37109375 C27.52842911 77.03239288 27.76388947 77.69369202 28.00648499 78.37503052 C29.94208542 83.81938805 31.84377022 89.27385603 33.6875 94.75 C34.05270752 95.81963989 34.05270752 95.81963989 34.42529297 96.91088867 C35.36924844 99.74524103 36 101.98860931 36 105 C12.9 105 -10.2 105 -34 105 C-33.24420548 99.70943837 -32.4653221 96.09060479 -30.625 91.25 C-28.69297009 86.0201949 -27.08000923 80.82361866 -25.671875 75.43359375 C-24.89483328 72.61907637 -23.9185795 69.94092087 -22.859375 67.22265625 C-19.09361656 57.48303555 -15.79249641 47.55305071 -12.375 37.6875 C-11.99069824 36.57842285 -11.60639648 35.4693457 -11.21044922 34.32666016 C-8.12385675 25.39926439 -5.11124479 16.45943561 -2.3125 7.4375 C-1.97508789 6.3537207 -1.97508789 6.3537207 -1.63085938 5.24804688 C-1.08643766 3.49894732 -0.54309959 1.74951053 0 0 Z " fill="#44A2F8" transform="translate(304,280)"/>
<path d="M0 0 C2.98918766 1.3533465 5.16362575 2.89710383 7.5625 5.125 C40.41330741 34.13921677 81.97176163 35.79249519 123.6875 33.21875 C125.3271875 33.11046875 125.3271875 33.11046875 127 33 C120.99857983 37.00094678 112.82128167 36.16545976 105.78515625 36.203125 C104.93054306 36.20882507 104.07592987 36.21452515 103.19541931 36.22039795 C101.3945334 36.22978402 99.59363081 36.23635625 97.79272461 36.24023438 C95.1004251 36.24986435 92.40891555 36.280918 89.71679688 36.3125 C56.78932975 36.51413916 28.58942878 27.21284362 3.99609375 4.98046875 C2 3 2 3 0 0 Z " fill="#1853C1" transform="translate(446,463)"/>
<path d="M0 0 C33.99 0 67.98 0 103 0 C102.67 0.99 102.34 1.98 102 3 C100.13078133 2.99000725 100.13078133 2.99000725 98.22380066 2.97981262 C86.49599489 2.91907091 74.76822091 2.87406074 63.04029369 2.84456348 C57.0104385 2.828889 50.98071 2.80761808 44.95092773 2.77368164 C39.13488324 2.74115196 33.31896083 2.72316042 27.50283241 2.71536827 C25.2807962 2.70981327 23.05876688 2.69896612 20.83678246 2.68280983 C17.73112781 2.66112072 14.62598152 2.65802953 11.52026367 2.65942383 C10.59597565 2.648638 9.67168762 2.63785217 8.71939087 2.6267395 C7.45108177 2.63292549 7.45108177 2.63292549 6.15715027 2.63923645 C5.42248126 2.63647107 4.68781225 2.63370569 3.93088055 2.63085651 C1.47822217 3.09975288 0.5784068 4.11960821 -1 6 C-0.67 4.02 -0.34 2.04 0 0 Z " fill="#6397EB" transform="translate(253,432)"/>
<path d="M0 0 C3.66750012 3.79396564 4.85946365 7.33414822 6.20703125 12.28515625 C7.48186455 16.64973331 9.24398183 20.81051503 11 25 C11.33 23.35 11.66 21.7 12 20 C12.33 20 12.66 20 13 20 C13.1959375 20.7528125 13.391875 21.505625 13.59375 22.28125 C16.28933086 31.8552096 20.32906015 40.25873144 25 49 C25.32516602 49.62616211 25.65033203 50.25232422 25.98535156 50.89746094 C30.60485572 59.77461593 35.96032069 66.93146955 43 74 C42.01 74.33 41.02 74.66 40 75 C31.620187 65.27941692 25.2386806 55.7253998 20 44 C19.01 44.66 18.02 45.32 17 46 C12.4715323 34.90610034 12.4715323 34.90610034 10.35620117 29.70288086 C10.1065712 29.0888591 9.85694122 28.47483734 9.5997467 27.84220886 C9.35155685 27.23170181 9.103367 26.62119476 8.84765625 25.9921875 C7.22131799 21.99243359 5.58814794 17.99597222 3.93359375 14.0078125 C3.39320362 12.69271883 2.85283621 11.37761582 2.3125 10.0625 C1.62607422 8.40927734 1.62607422 8.40927734 0.92578125 6.72265625 C0 4 0 4 0 0 Z " fill="#2572EC" transform="translate(405,388)"/>
<path d="M0 0 C-2.56613896 1.71075931 -4.01935975 2.42934445 -6.87890625 3.21875 C-7.63034912 3.42790039 -8.38179199 3.63705078 -9.15600586 3.85253906 C-9.95014893 4.06620117 -10.74429199 4.27986328 -11.5625 4.5 C-12.37662354 4.72139648 -13.19074707 4.94279297 -14.02954102 5.17089844 C-27.01380653 8.65824183 -39.30775805 10.07628362 -52.75 10.125 C-53.64952393 10.12967285 -54.54904785 10.1343457 -55.47583008 10.13916016 C-60.42445002 10.12723245 -65.12182457 9.83968593 -70 9 C-70 8.67 -70 8.34 -70 8 C-69.13012451 7.98541748 -68.26024902 7.97083496 -67.36401367 7.95581055 C-37.59978096 7.56060534 -37.59978096 7.56060534 -8.76171875 0.76953125 C-5.73098049 -0.07496017 -3.13115822 -0.13412642 0 0 Z " fill="#1A72DD" transform="translate(602,442)"/>
<path d="M0 0 C0.94875 0.825 1.8975 1.65 2.875 2.5 C3.51824219 3.04527344 4.16148437 3.59054687 4.82421875 4.15234375 C6.31866755 5.42141787 7.79984714 6.70623336 9.26953125 8.00390625 C17.51040219 15.01996277 26.4659192 18.77163675 37 21 C37 21.66 37 22.32 37 23 C37.66 23.33 38.32 23.66 39 24 C33.13190493 23.47606294 28.45126259 22.23891142 23 20 C23 19.34 23 18.68 23 18 C22.1234375 17.90976562 21.246875 17.81953125 20.34375 17.7265625 C11.97026384 15.90709004 4.96601178 8.71082673 0 2 C0 1.34 0 0.68 0 0 Z " fill="#1D6CD9" transform="translate(493,426)"/>
<path d="M0 0 C2.98918766 1.3533465 5.16362575 2.89710383 7.5625 5.125 C17.52901425 13.94153184 27.90953295 19.67055614 40 25 C40 25.33 40 25.66 40 26 C25.50488115 25.34113096 12.54928247 13.59879191 2.625 3.875 C0 1 0 1 0 0 Z " fill="#1D6BDC" transform="translate(446,463)"/>
<path d="M0 0 C2.12988281 0.41210938 2.12988281 0.41210938 4 1 C1.25316507 3.6075222 -1.49801237 6.21041739 -4.25 8.8125 C-5.02730469 9.55048828 -5.80460937 10.28847656 -6.60546875 11.04882812 C-7.35957031 11.76103516 -8.11367188 12.47324219 -8.890625 13.20703125 C-9.58188477 13.8616333 -10.27314453 14.51623535 -10.98535156 15.19067383 C-12.9145043 16.92321757 -14.90132927 18.47949248 -17 20 C-17.42068911 15.51009987 -17.42068911 15.51009987 -15.56640625 13.26171875 C-14.90511719 12.74222656 -14.24382812 12.22273438 -13.5625 11.6875 C-9.5331525 8.445414 -5.80111431 4.99531883 -2.078125 1.40625 C-1.39234375 0.9421875 -0.7065625 0.478125 0 0 Z " fill="#70BDEB" transform="translate(456,286)"/>
<path d="M0 0 C2.21838573 2.04943322 3.62911724 3.91309371 4.9453125 6.625 C5.4710083 7.67747925 5.4710083 7.67747925 6.00732422 8.7512207 C6.37615723 9.49331787 6.74499023 10.23541504 7.125 11 C10.98386532 18.55033693 15.37360784 24.63923939 21 31 C22.01400527 32.32271354 23.01934715 33.65237328 24 35 C18.7045232 34.14011781 16.75587091 30.45893041 13.6875 26.375 C13.11298096 25.61823975 12.53846191 24.86147949 11.9465332 24.08178711 C0 7.87791934 0 7.87791934 0 0 Z " fill="#1E7EED" transform="translate(424,428)"/>
<path d="M0 0 C-3.69511445 2.46340963 -7.25489459 3.43482807 -11.5 4.625 C-12.30356934 4.85082764 -13.10713867 5.07665527 -13.93505859 5.30932617 C-20.02871859 6.93214087 -25.6861666 7.62582049 -32 7 C-28.54135753 5.07425252 -25.63781626 4.76323139 -21.703125 4.41796875 C-17.34963891 3.74481411 -13.27096514 2.26635068 -9.11328125 0.83984375 C-5.93169804 -0.01842525 -3.27823227 -0.15236162 0 0 Z " fill="#1B5AC4" transform="translate(602,442)"/>
<path d="M0 0 C0.33 0.66 0.66 1.32 1 2 C0.05982059 4.02880819 -0.95707741 6.02204336 -2 8 C-4.60624592 13.57303969 -6.89790709 19.2192445 -9 25 C-9.33 25 -9.66 25 -10 25 C-10.77341538 16.10572308 -6.69483238 8.3552374 -2 1 C-1.34 0.67 -0.68 0.34 0 0 Z " fill="#5EB7F2" transform="translate(431,315)"/>
<path d="M0 0 C3.71481518 3.84291225 4.91531021 7.48182017 6.2734375 12.50390625 C6.92249578 14.73373551 7.70508496 16.7145389 8.6875 18.8125 C9.94669707 21.87055002 10.29575647 23.74667878 10 27 C7.29031052 22.93546578 5.68646237 18.58475499 3.875 14.0625 C3.50246094 13.15564453 3.12992187 12.24878906 2.74609375 11.31445312 C2.39417969 10.43853516 2.04226563 9.56261719 1.6796875 8.66015625 C1.35726074 7.86230713 1.03483398 7.06445801 0.70263672 6.24243164 C0 4 0 4 0 0 Z " fill="#6797EF" transform="translate(405,388)"/>
<path d="M0 0 C4.71370756 0.64985095 8.57686444 2.51561392 12.8125 4.5625 C13.50537109 4.89185547 14.19824219 5.22121094 14.91210938 5.56054688 C16.61044948 6.36872251 18.30555769 7.18368377 20 8 C20 8.33 20 8.66 20 9 C12.92596166 8.6784528 7.02613423 5.58336373 1 2 C0.67 1.34 0.34 0.68 0 0 Z " fill="#1D61D1" transform="translate(466,480)"/>
<path d="M0 0 C0.25523437 0.51433594 0.51046875 1.02867187 0.7734375 1.55859375 C1.74593377 3.49429492 2.73359439 5.42237645 3.7265625 7.34765625 C4.35951353 8.5858667 4.9923226 9.82414972 5.625 11.0625 C5.94984375 11.68705078 6.2746875 12.31160156 6.609375 12.95507812 C8.07371608 15.83761507 9 17.72016274 9 21 C5.62935464 17.99666856 3.95234912 15.22905202 2.25 11.0625 C1.82203125 10.04285156 1.3940625 9.02320313 0.953125 7.97265625 C0.03291001 5.10264147 -0.19792909 2.98543044 0 0 Z " fill="#1B73DF" transform="translate(483,405)"/>
<path d="M0 0 C0 3.79330832 -1.17710681 5.01684801 -3.375 8.0625 C-4.00148438 8.94035156 -4.62796875 9.81820312 -5.2734375 10.72265625 C-7 13 -7 13 -9 15 C-9.80859375 13.359375 -9.80859375 13.359375 -10 11 C-8.41429339 8.87782068 -6.90709742 7.1166444 -5.0625 5.25 C-4.34030273 4.49009766 -4.34030273 4.49009766 -3.60351562 3.71484375 C-2.41346046 2.46587496 -1.20813387 1.2314897 0 0 Z M-12 13 C-11.01 13.495 -11.01 13.495 -10 14 C-10.99 14.495 -10.99 14.495 -12 15 C-12 14.34 -12 13.68 -12 13 Z " fill="#DEE0E8" transform="translate(105,125)"/>
<path d="M0 0 C6.87324585 -0.14941839 10.09986303 3.29639678 14.9609375 7.87109375 C17 10 17 10 18 12 C14.75105646 10.48833877 11.92119652 8.63316522 9 6.5625 C8.154375 5.96566406 7.30875 5.36882812 6.4375 4.75390625 C4.27096642 3.19497424 2.12809762 1.61085167 0 0 Z " fill="#C2C5D8" transform="translate(649,98)"/>
<path d="M0 0 C2.36068151 1.96956268 4.68798928 3.97353642 7 6 C7.60585938 6.5259375 8.21171875 7.051875 8.8359375 7.59375 C10.5 9.125 10.5 9.125 13 12 C12.65625 14.1796875 12.65625 14.1796875 12 16 C11.63648438 15.49210938 11.27296875 14.98421875 10.8984375 14.4609375 C8.32790557 10.94128608 5.77088382 7.65104063 2.625 4.625 C1.75875 3.75875 0.8925 2.8925 0 2 C0 1.34 0 0.68 0 0 Z " fill="#C0C3D7" transform="translate(673,116)"/>
<path d="M0 0 C1.13643966 3.40931897 0.86747764 4.00335456 -0.4375 7.1875 C-0.86869141 8.26064453 -0.86869141 8.26064453 -1.30859375 9.35546875 C-1.53675781 9.89816406 -1.76492188 10.44085938 -2 11 C-2.33 11 -2.66 11 -3 11 C-3.125 4.375 -3.125 4.375 -2 1 C-1.34 0.67 -0.68 0.34 0 0 Z " fill="#71D0F9" transform="translate(424,329)"/>
<path d="M0 0 C-3.53411321 2.12046792 -6.94393835 2.53199289 -11 3 C-8.21756596 -1.17365106 -4.53441502 -0.22300402 0 0 Z " fill="#1D64CC" transform="translate(593,445)"/>
<path d="M0 0 C1.60156595 4.00391487 0.4087561 7.07031192 -1 11 C-1.99 11.495 -1.99 11.495 -3 12 C-2.25749403 7.91621717 -1.17076699 3.98060777 0 0 Z " fill="#86C4F9" transform="translate(282,345)"/>
</svg>
