<svg xmlns="http://www.w3.org/2000/svg" viewBox="0 0 1024 1024" width="1024" height="1024">
<path d="M0 0 C337.92 0 675.84 0 1024 0 C1024 337.92 1024 675.84 1024 1024 C686.08 1024 348.16 1024 0 1024 C0 686.08 0 348.16 0 0 Z " fill="#F6F5F5" transform="translate(0,0)"/>
<path d="M0 0 C1.77771581 -0.00402152 3.55543072 -0.00846087 5.33314455 -0.01327956 C10.19690717 -0.025174 15.0606599 -0.03087682 19.92443419 -0.03546071 C25.17903503 -0.04144399 30.43362422 -0.05304686 35.68821716 -0.06375122 C48.36758294 -0.08821235 61.04695255 -0.10289276 73.72633463 -0.11581129 C77.3118243 -0.1195277 80.89731358 -0.12350056 84.48280287 -0.12756395 C106.78312576 -0.15280407 129.08344933 -0.17484116 151.38378334 -0.1872921 C156.5429141 -0.19022143 161.70204483 -0.19318315 166.86117554 -0.19619751 C168.14333346 -0.19694356 169.42549137 -0.19768961 170.74650256 -0.19845827 C191.49620583 -0.21110005 212.24582319 -0.24431136 232.99548633 -0.28599934 C254.33398001 -0.32851638 275.67242981 -0.35199834 297.0109657 -0.35721266 C308.97743782 -0.3606156 320.94377563 -0.37223852 332.91020584 -0.4053154 C343.10541402 -0.43345154 353.30046033 -0.44425606 363.49570431 -0.43311994 C368.68774051 -0.42796795 373.87943845 -0.4305923 379.07142448 -0.45558548 C416.29909028 -0.62503576 454.2374113 2.06803196 483.40707397 28.15390015 C484.22305054 28.8396814 485.0390271 29.52546265 485.87973022 30.23202515 C507.94018751 49.18969787 521.4643715 76.3210303 524.40707397 105.15390015 C525.22407884 118.10717441 524.96316089 131.1433054 524.92997265 144.11486363 C524.92084155 149.40334794 524.93493153 154.69178129 524.94589233 159.98025513 C524.96359765 170.31437586 524.95987315 180.64837981 524.94824177 190.98250495 C524.93917512 199.38904338 524.93799737 207.79554929 524.94233704 216.20209122 C524.94294997 217.4026628 524.9435629 218.60323439 524.94419441 219.84018693 C524.94547343 222.27983491 524.94677028 224.71948287 524.94808477 227.15913083 C524.95946743 249.98976742 524.94641378 272.82033957 524.92488331 295.65096559 C524.90701904 315.19836275 524.91011544 334.74566486 524.92855835 354.2930603 C524.95001395 377.04391388 524.95836421 399.79471107 524.94610929 422.54557335 C524.94483523 424.97640808 524.94357774 427.40724281 524.94233704 429.83807755 C524.94171993 431.0337985 524.94110283 432.22951946 524.94046703 433.46147438 C524.93702783 441.84718246 524.94281156 450.23285448 524.95225525 458.61855698 C524.96352908 468.85347498 524.96032301 479.08827043 524.93913227 489.32317458 C524.92869315 494.53522419 524.92437657 499.74707025 524.93772888 504.95911789 C525.03750238 547.45885508 521.15900589 584.95612695 490.40707397 617.15390015 C489.80765991 617.82807983 489.20824585 618.50225952 488.59066772 619.1968689 C476.29867936 632.49770296 458.31602866 641.31330715 441.21957397 646.52890015 C440.04552002 646.88709839 440.04552002 646.88709839 438.8477478 647.25253296 C425.99195601 650.93055889 413.35970638 651.44585318 400.10220337 651.41459656 C398.27168649 651.41762188 396.44117087 651.42151327 394.61065745 651.42618912 C389.61052865 651.43642881 384.61047186 651.43429761 379.61033726 651.43000853 C374.205956 651.42753395 368.80159176 651.43656457 363.3972168 651.44404602 C352.82073563 651.45677495 342.24427988 651.45858895 331.66779235 651.45624576 C323.06746325 651.45446033 314.46714184 651.45621705 305.86681366 651.4604702 C304.02842756 651.46136298 304.02842756 651.46136298 302.15290235 651.4622738 C299.66283172 651.4634856 297.1727611 651.46469973 294.68269047 651.46591618 C271.3467849 651.47678487 248.01089379 651.47463247 224.67498741 651.46853133 C203.34773978 651.4633634 182.02054902 651.47461557 160.69330874 651.49362955 C138.77170021 651.51302294 116.85011328 651.52126128 94.92849612 651.5175063 C82.63035754 651.51559646 70.33225784 651.51806064 58.03412628 651.53222084 C47.56390972 651.54415477 37.09375598 651.545517 26.62353852 651.53343067 C21.28674907 651.527556 15.95007439 651.52640341 10.61329269 651.53843307 C5.71786319 651.54933918 0.82264365 651.54613268 -4.07277623 651.53217139 C-5.833782 651.52953741 -7.59480449 651.53184963 -9.3557938 651.53990725 C-42.83530128 651.68233557 -72.43813535 640.35818376 -96.40542603 616.71640015 C-121.44450342 591.30035021 -129.75368501 558.59268837 -129.73336792 523.84376526 C-129.73595423 522.072462 -129.73896813 520.30115933 -129.74237132 518.52985746 C-129.75041355 513.67472263 -129.75222934 508.81960262 -129.75296879 503.96446192 C-129.75482423 498.7228758 -129.76237412 493.48129728 -129.769104 488.23971558 C-129.78266895 476.78266051 -129.78870941 465.32560896 -129.79311466 453.8685472 C-129.79588066 446.7084742 -129.80011871 439.54840255 -129.80461884 432.38833046 C-129.81680998 412.54711969 -129.82710903 392.70590999 -129.83049393 372.86469555 C-129.83071349 371.59550243 -129.83093306 370.32630931 -129.83115928 369.0186558 C-129.83137756 367.7464953 -129.83159583 366.4743348 -129.83182073 365.16362399 C-129.83226419 362.58591982 -129.83271075 360.00821565 -129.8331604 357.43051147 C-129.83338183 356.15189223 -129.83360326 354.87327299 -129.8338314 353.5559077 C-129.83777637 332.85445739 -129.8552219 312.15304234 -129.87851992 291.45160564 C-129.90227065 270.17534926 -129.9146975 248.89911055 -129.91586185 227.6228407 C-129.91677661 215.68615981 -129.92247858 203.74952486 -129.94068146 191.81285667 C-129.95613285 181.64493055 -129.96117336 171.47706455 -129.95294335 161.3091289 C-129.94905441 156.12793658 -129.94987994 150.94686515 -129.9640007 145.76568794 C-129.97684586 141.00872665 -129.97545027 136.25197579 -129.96340999 131.49501435 C-129.96147117 129.78766895 -129.96444577 128.08030809 -129.97325435 126.37298431 C-130.14031325 91.75974008 -120.8768813 60.34607132 -96.47183228 35.0015564 C-69.94902783 8.33416426 -36.47140356 0.00900051 0 0 Z " fill="#13338D" transform="translate(314.5929260253906,185.84609985351563)"/>
<path d="M0 0 C0.73511307 0.00359528 1.47022614 0.00719055 2.22761536 0.01089478 C2.99829346 0.01074875 3.76897156 0.01060272 4.56300354 0.01045227 C7.12237823 0.01115157 9.68168104 0.01894471 12.24104309 0.02676392 C14.01081299 0.02862804 15.7805834 0.03005197 17.550354 0.03105164 C22.2176505 0.03487728 26.88491607 0.04470796 31.55220032 0.05575562 C36.31110719 0.06596873 41.07001905 0.07054904 45.82893372 0.07559204 C55.17334837 0.08633019 64.51774004 0.10340717 73.86213684 0.12442017 C74.26979279 1.28485336 74.67744873 2.44528656 75.09745789 3.6408844 C75.63990907 5.18220383 76.18240191 6.7235086 76.72492981 8.26480103 C76.99270737 9.0274099 77.26048492 9.79001877 77.53637695 10.575737 C79.56347875 16.33074307 81.70146681 22.02918138 83.98713684 27.68692017 C84.46860168 28.90218384 84.46860168 28.90218384 84.95979309 30.14199829 C86.50140597 33.98364805 88.12453562 37.72361946 90.01057434 41.40957642 C91.45393126 44.23132164 92.55292204 46.92227439 93.36213684 49.99942017 C95.22151215 56.54241114 97.43222108 62.92147276 100.98713684 68.74942017 C102.78584953 71.98710301 103.53102745 74.49359222 104.31135559 78.04238892 C105.1075799 81.05222973 106.41664342 83.75453887 107.72151184 86.57363892 C110.91872639 93.7235742 113.56946048 101.10876342 115.98713684 108.55410767 C117.18850091 112.08311463 118.49106872 115.57145783 119.79963684 119.06192017 C120.04061096 119.70620972 120.28158508 120.35049927 120.52986145 121.01431274 C121.91152669 124.68176383 123.34328889 128.32427321 124.81526184 131.95645142 C126.56352789 136.30529958 128.15077187 140.69607636 129.70368958 145.11782837 C134.42019064 160.63266224 134.42019064 160.63266224 142.86213684 174.12442017 C143.18919168 175.59616695 143.47314836 177.07756389 143.73713684 178.56192017 C144.74924406 183.87548306 146.21885118 188.97545844 147.86213684 194.12442017 C148.52213684 194.12442017 149.18213684 194.12442017 149.86213684 194.12442017 C151.16119484 189.82121611 150.32092883 186.19809031 149.48713684 181.87442017 C144.2694819 152.32851998 147.43894248 119.43965378 164.86213684 94.12442017 C165.58289148 92.90249564 166.29149983 91.67331652 166.98713684 90.43692017 C167.60588684 89.34379517 168.22463684 88.25067017 168.86213684 87.12442017 C169.31588684 86.25817017 169.76963684 85.39192017 170.23713684 84.49942017 C171.96664405 81.97167886 173.94618984 80.30851599 176.34260559 78.42520142 C178.09950654 77.00446418 178.09950654 77.00446418 180.04963684 74.37442017 C189.4106412 62.70316793 206.38915283 50.93310017 220.86213684 47.12442017 C222.38829261 46.364179 223.90837687 45.59171101 225.42463684 44.81192017 C264.23549051 26.81731312 315.83824846 32.73022124 354.70588684 46.95254517 C356.26823059 47.53262329 356.26823059 47.53262329 357.86213684 48.12442017 C356.68771766 56.90165828 355.31263231 65.63915432 353.86213684 74.37442017 C353.61318665 75.88165649 353.61318665 75.88165649 353.35920715 77.41934204 C352.31157991 83.68040703 351.14852652 89.90801044 349.86213684 96.12442017 C348.89276184 95.87047485 347.92338684 95.61652954 346.92463684 95.35488892 C329.2039717 90.77915126 312.21276571 87.94496726 293.86213684 87.99942017 C292.51447965 87.99585236 291.16682331 87.99194857 289.81916809 87.98770142 C288.55459778 87.98899048 287.29002747 87.99027954 285.98713684 87.99160767 C284.83471497 87.9927356 283.68229309 87.99386353 282.49494934 87.99502563 C279.93737316 87.8253358 279.93737316 87.8253358 278.86213684 89.12442017 C277.56276184 89.24817017 276.26338684 89.37192017 274.92463684 89.49942017 C258.67066992 91.23726569 243.18379619 99.4210953 232.86213684 112.12442017 C226.23210517 121.43316551 221.80001152 130.65971069 220.86213684 142.12442017 C220.4968824 144.02215519 220.12156396 145.91797592 219.73713684 147.81192017 C217.22611964 163.09723916 217.41727848 182.07676472 224.83869934 195.89004517 C225.86213684 198.12442017 225.86213684 198.12442017 225.86213684 202.12442017 C226.52213684 202.12442017 227.18213684 202.12442017 227.86213684 202.12442017 C228.11350403 202.85145142 228.36487122 203.57848267 228.62385559 204.32754517 C233.03353091 214.28756893 242.9873991 220.50298654 251.86213684 226.12442017 C252.67037903 226.6593811 253.47862122 227.19434204 254.31135559 227.74551392 C257.43437687 229.43376278 260.50108408 230.31938551 263.92463684 231.24942017 C265.1324884 231.58199829 266.34033997 231.91457642 267.58479309 232.25723267 C268.66631653 232.54340454 269.74783997 232.82957642 270.86213684 233.12442017 C271.45703918 233.30311646 272.05194153 233.48181274 272.66487122 233.66592407 C278.0738078 234.79458884 283.79112119 234.36748279 289.29963684 234.37442017 C289.99177277 234.37609192 290.68390869 234.37776367 291.39701843 234.37948608 C305.31299689 234.38149936 319.66031431 233.94675256 332.86213684 229.12442017 C345.53560623 224.69955931 345.53560623 224.69955931 351.86213684 224.12442017 C351.80992981 224.96359985 351.80992981 224.96359985 351.75666809 225.81973267 C351.54035547 232.22670661 352.56197147 237.89140268 353.99104309 244.12051392 C355.03201356 248.76057182 355.83995998 253.43307296 356.61213684 258.12442017 C356.75175842 258.92549194 356.89138 259.72656372 357.03523254 260.5519104 C357.7542118 265.01934975 357.92365438 268.64883271 356.86213684 273.12442017 C310.31832779 289.08229755 255.95718494 292.06412871 210.86213684 270.12442017 C208.84412481 268.81850851 206.83958673 267.49097412 204.86213684 266.12442017 C204.02037903 265.79442017 203.17862122 265.46442017 202.31135559 265.12442017 C191.40726004 260.67234926 180.85376578 248.44659209 173.86213684 239.12442017 C173.86213684 238.46442017 173.86213684 237.80442017 173.86213684 237.12442017 C173.20213684 237.12442017 172.54213684 237.12442017 171.86213684 237.12442017 C167.77600718 229.83717511 163.81073524 222.48679239 159.86213684 215.12442017 C158.56089149 219.5198617 159.23783411 222.03045772 160.88948059 226.25332642 C161.34830627 227.44393677 161.80713196 228.63454712 162.27986145 229.86123657 C162.78614787 231.13658571 163.29274606 232.41181111 163.79963684 233.68692017 C164.30922837 234.99559514 164.81776641 236.3046808 165.32527161 237.61416626 C166.81986873 241.45805285 168.33836185 245.29200351 169.86213684 249.12442017 C170.27334778 250.15969849 170.68455872 251.19497681 171.10823059 252.2616272 C172.47077883 255.6839099 173.8338665 259.10574036 175.22322083 262.51724243 C177.59215419 268.34579877 179.70654756 274.19654964 181.86213684 280.12442017 C158.43213684 280.12442017 135.00213684 280.12442017 110.86213684 280.12442017 C106.705241 269.43525942 102.56882371 258.76060038 98.61213684 247.99942017 C97.77372483 245.72593485 96.93518647 243.45249612 96.09651184 241.17910767 C95.71084045 240.13295288 95.32516907 239.0867981 94.92781067 238.00894165 C93.28465374 233.561313 91.64075075 229.11421126 89.91291809 224.69863892 C88.74047643 221.70239911 87.86213684 219.36870316 87.86213684 216.12442017 C51.89213684 216.45442017 15.92213684 216.78442017 -21.13786316 217.12442017 C-23.04846863 222.85623658 -24.75806193 228.28679959 -26.13786316 234.12442017 C-26.79786316 234.12442017 -27.45786316 234.12442017 -28.13786316 234.12442017 C-28.23583191 234.73027954 -28.33380066 235.33613892 -28.43473816 235.96035767 C-29.41717738 241.46540502 -30.89097954 246.34845072 -33.06755066 251.49160767 C-34.22366289 254.33547498 -35.18959488 257.20494853 -36.13786316 260.12442017 C-37.67168933 264.82896211 -39.39646474 269.40394587 -41.30583191 273.96817017 C-42.29182313 276.39183035 -42.29182313 276.39183035 -43.13786316 280.12442017 C-66.23786316 280.12442017 -89.33786316 280.12442017 -113.13786316 280.12442017 C-108.69527443 265.6860068 -108.69527443 265.6860068 -106.45036316 260.81192017 C-103.67284426 254.51714116 -101.21848786 248.13714713 -98.82536316 241.68692017 C-95.39228257 232.43468765 -91.86430757 223.22648355 -88.23234558 214.05044556 C-86.08268161 208.60366523 -84.02711734 203.13245239 -82.05485535 197.61880493 C-81.15779306 195.17863309 -80.1954476 192.77606417 -79.20036316 190.37442017 C-77.48188585 186.13911782 -76.00450597 181.8391083 -74.57536316 177.49942017 C-72.1516317 170.15406684 -69.62836361 163.12404289 -66.32536316 156.12442017 C-63.10156765 149.2357626 -60.43533624 142.19864699 -57.84587097 135.05459595 C-57.09932348 133.01935303 -56.32351246 130.99644631 -55.54801941 128.97207642 C-54.41962236 125.9716406 -53.51805372 122.9932591 -52.76286316 119.87442017 C-50.77737748 112.38986681 -48.03761942 105.0405842 -43.95036316 98.43692017 C-42.08085762 95.02023763 -41.34832617 92.23343525 -40.72770691 88.43301392 C-39.95621152 85.4134525 -38.55800231 82.89575968 -37.13786316 80.12442017 C-36.21292416 77.90717204 -35.31697147 75.67761011 -34.45036316 73.43692017 C-34.01337097 72.31930298 -33.57637878 71.20168579 -33.12614441 70.05020142 C-31.97785319 67.16541251 -31.97785319 67.16541251 -32.13786316 64.12442017 C-31.46425143 62.63960793 -30.7249298 61.18415591 -29.95036316 59.74942017 C-27.3366166 54.69963219 -25.30639526 49.53666201 -23.34880066 44.20254517 C-22.11672532 41.07068915 -20.64367037 38.13186337 -19.13786316 35.12442017 C-18.67380066 33.48473267 -18.67380066 33.48473267 -18.20036316 31.81192017 C-17.41335004 29.08052169 -16.62259578 26.85506889 -15.45036316 24.31192017 C-12.86534659 18.7012592 -10.70628935 12.92813024 -8.51213074 7.15640259 C-8.0735675 6.01135254 -8.0735675 6.01135254 -7.62614441 4.84317017 C-7.36357849 4.15158813 -7.10101257 3.4600061 -6.83049011 2.74746704 C-5.37936535 -0.65298323 -3.43886769 0.00709704 0 0 Z " fill="#FCFCFD" transform="translate(385.1378631591797,338.8755798339844)"/>
<path d="M0 0 C-1.17441918 8.77723811 -2.54950453 17.51473416 -4 26.25 C-4.1659668 27.25482422 -4.33193359 28.25964844 -4.50292969 29.29492188 C-5.55055693 35.55598687 -6.71361032 41.78359028 -8 48 C-8.969375 47.74605469 -9.93875 47.49210937 -10.9375 47.23046875 C-28.65816515 42.65473109 -45.64937113 39.8205471 -64 39.875 C-65.34765719 39.8714322 -66.69531353 39.86752841 -68.04296875 39.86328125 C-69.30753906 39.86457031 -70.57210937 39.86585938 -71.875 39.8671875 C-73.02742187 39.86831543 -74.17984375 39.86944336 -75.3671875 39.87060547 C-77.92476369 39.70091564 -77.92476369 39.70091564 -79 41 C-80.299375 41.12375 -81.59875 41.2475 -82.9375 41.375 C-99.19146692 43.11284552 -114.67834065 51.29667514 -125 64 C-131.63003167 73.30874534 -136.06212532 82.53529052 -137 94 C-137.36525444 95.89773502 -137.74057289 97.79355575 -138.125 99.6875 C-140.6360172 114.97281899 -140.44485836 133.95234455 -133.0234375 147.765625 C-132 150 -132 150 -132 154 C-131.34 154 -130.68 154 -130 154 C-129.74863281 154.72703125 -129.49726562 155.4540625 -129.23828125 156.203125 C-124.82860593 166.16314876 -114.87473774 172.37856638 -106 178 C-105.19175781 178.53496094 -104.38351562 179.06992187 -103.55078125 179.62109375 C-100.42775997 181.30934262 -97.36105276 182.19496535 -93.9375 183.125 C-92.72964844 183.45757813 -91.52179688 183.79015625 -90.27734375 184.1328125 C-89.19582031 184.41898438 -88.11429688 184.70515625 -87 185 C-86.40509766 185.17869629 -85.81019531 185.35739258 -85.19726562 185.54150391 C-79.78832904 186.67016867 -74.07101565 186.24306263 -68.5625 186.25 C-67.87036407 186.25167175 -67.17822815 186.25334351 -66.46511841 186.25506592 C-52.54913995 186.2570792 -38.20182253 185.82233239 -25 181 C-12.32653061 176.57513915 -12.32653061 176.57513915 -6 176 C-6.03480469 176.55945313 -6.06960938 177.11890625 -6.10546875 177.6953125 C-6.32178138 184.10228644 -5.30016537 189.76698251 -3.87109375 195.99609375 C-2.83012328 200.63615166 -2.02217686 205.30865279 -1.25 210 C-1.11037842 210.80107178 -0.97075684 211.60214355 -0.8269043 212.42749023 C-0.10792504 216.89492958 0.06151754 220.52441254 -1 225 C-47.54380905 240.95787739 -101.9049519 243.93970854 -147 222 C-149.01801203 220.69408835 -151.02255011 219.36655395 -153 218 C-153.84175781 217.67 -154.68351563 217.34 -155.55078125 217 C-166.4548768 212.54792909 -177.00837106 200.32217192 -184 191 C-184 190.34 -184 189.68 -184 189 C-184.66 189 -185.32 189 -186 189 C-190.08612966 181.71275495 -194.0514016 174.36237223 -198 167 C-199.485 167.99 -199.485 167.99 -201 169 C-202.36957005 165.73540494 -203.71794485 162.46246823 -205.0625 159.1875 C-205.45244141 158.25873047 -205.84238281 157.32996094 -206.24414062 156.37304688 C-206.60830078 155.48037109 -206.97246094 154.58769531 -207.34765625 153.66796875 C-207.85824585 152.43469849 -207.85824585 152.43469849 -208.37915039 151.17651367 C-209 149 -209 149 -208 146 C-206.68947149 141.70181051 -207.54079497 138.07581195 -208.375 133.75 C-213.59265494 104.20409981 -210.42319436 71.31523362 -193 46 C-192.27924536 44.77807547 -191.57063702 43.54889636 -190.875 42.3125 C-190.25625 41.219375 -189.6375 40.12625 -189 39 C-188.54625 38.13375 -188.0925 37.2675 -187.625 36.375 C-185.89549279 33.84725869 -183.915947 32.18409582 -181.51953125 30.30078125 C-179.7626303 28.88004401 -179.7626303 28.88004401 -177.8125 26.25 C-168.45149564 14.57874777 -151.47298401 2.80868 -137 -1 C-135.47384423 -1.76024116 -133.95375997 -2.53270916 -132.4375 -3.3125 C-92.29699207 -21.9235997 -39.96842773 -14.83976277 0 0 Z " fill="#3BACF7" transform="translate(743,387)"/>
<path d="M0 0 C0.66 0 1.32 0 2 0 C2.2475 1.27875 2.495 2.5575 2.75 3.875 C3.71878873 8.25501664 5.22497524 12.18899164 6.9453125 16.3203125 C8.02423741 19.06158099 8.90424469 21.80332078 9.75 24.625 C12.58620503 34.08649029 15.78307166 43.42983834 18.92651367 52.79272461 C19.66987696 55.01368516 20.40936486 57.23594517 21.14575195 59.45922852 C23.41874593 66.31753403 25.73709752 73.1571932 28.11328125 79.98046875 C28.64393329 81.50844511 29.1745321 83.03643995 29.70507812 84.56445312 C30.51622974 86.90026246 31.32927789 89.23533242 32.14770508 91.56860352 C32.95439843 93.87063088 33.75327613 96.17524485 34.55078125 98.48046875 C34.79758133 99.17835007 35.04438141 99.87623138 35.29866028 100.59526062 C36.45676116 103.96454395 37 106.38615315 37 110 C12.91 110 -11.18 110 -36 110 C-34.73389763 102.40338576 -32.58815301 95.3641235 -29.81640625 88.1953125 C-28.45762221 84.54154871 -27.27088701 80.83072016 -26.0625 77.125 C-25.26763934 74.78717454 -24.43599981 72.48619113 -23.55859375 70.1796875 C-21.92771244 65.86957431 -20.49110404 61.50548994 -19.0625 57.125 C-17.50775779 52.39487827 -15.9558214 47.70767775 -14 43.125 C-11.59930869 37.37334375 -9.97264054 31.37635572 -8.21972656 25.40405273 C-6.60422758 19.92627639 -4.83512334 14.55403417 -2.8125 9.2109375 C-1.69871805 6.18016547 -0.83166327 3.11873726 0 0 Z " fill="#41A0F8" transform="translate(418,394)"/>
<path d="M0 0 C1.3656528 3.10375636 0.93171529 4.17884091 -0.3125 7.4375 C-0.869375 8.613125 -1.42625 9.78875 -2 11 C-2.67276716 12.6642135 -3.34206835 14.32986582 -4 16 C-12.65460982 17.14163874 -21.28804064 17.15503539 -30 17.125 C-30.73812927 17.12411377 -31.47625854 17.12322754 -32.23675537 17.12231445 C-46.17394829 17.10276562 -60.07906944 16.69181468 -74 16 C-74 15.34 -74 14.68 -74 14 C-50.9 14 -27.8 14 -4 14 C-3.67 11.69 -3.34 9.38 -3 7 C-2.16522732 4.54758493 -1.10440837 2.35287 0 0 Z " fill="#365AB2" transform="translate(346,605)"/>
<path d="M0 0 C0.66 0 1.32 0 2 0 C2.23074219 0.82242188 2.46148438 1.64484375 2.69921875 2.4921875 C4.61967284 9.06575762 6.76491631 15.01020416 10.14453125 20.9765625 C11 23 11 23 10 26 C9.67 25.34 9.34 24.68 9 24 C8.01 24.66 7.02 25.32 6 26 C4.63042995 22.73540494 3.28205515 19.46246823 1.9375 16.1875 C1.54755859 15.25873047 1.15761719 14.32996094 0.75585938 13.37304688 C0.39169922 12.48037109 0.02753906 11.58769531 -0.34765625 10.66796875 C-0.68804932 9.84578857 -1.02844238 9.0236084 -1.37915039 8.17651367 C-2.26739121 5.06260612 -1.00635291 3.01905874 0 0 Z " fill="#1D6EEC" transform="translate(536,530)"/>
<path d="M0 0 C-3.3996194 2.89803621 -6.62757074 4.90704146 -10.6875 6.75 C-16.87239589 9.77053055 -21.83735982 13.48268985 -27 18 C-27.845625 18.72445313 -28.69125 19.44890625 -29.5625 20.1953125 C-35.16559302 25.09801889 -40.19179088 30.31879201 -45 36 C-45.33 35.34 -45.66 34.68 -46 34 C-35.50037195 19.97336512 -22.90850157 10.92066078 -8 2 C-4.77208445 -0.1519437 -3.71599191 -0.20086443 0 0 Z " fill="#9BE9FA" transform="translate(604,388)"/>
<path d="M0 0 C2 1 2 1 2.8515625 2.92578125 C3.10679687 3.71339844 3.36203125 4.50101562 3.625 5.3125 C3.88539063 6.09238281 4.14578125 6.87226563 4.4140625 7.67578125 C5 10 5 10 5 14 C0.71 14 -3.58 14 -8 14 C-8 13.67 -8 13.34 -8 13 C-2.555 12.505 -2.555 12.505 3 12 C2.2575 9.8653125 2.2575 9.8653125 1.5 7.6875 C0.51952735 4.86864114 0 3.01490557 0 0 Z " fill="#3086F8" transform="translate(450,490)"/>
<path d="M0 0 C-3.51682139 2.97826756 -7.01302029 5.23589872 -11.125 7.3125 C-12.67574219 8.11107422 -12.67574219 8.11107422 -14.2578125 8.92578125 C-17 10 -17 10 -20 9 C-17.61200818 7.4861033 -15.21593697 5.98901304 -12.8125 4.5 C-12.13896484 4.07074219 -11.46542969 3.64148438 -10.77148438 3.19921875 C-7.07260191 0.92575929 -4.49771134 -0.62880625 0 0 Z " fill="#95E0F7" transform="translate(604,388)"/>
<path d="M0 0 C0.99 0.33 1.98 0.66 3 1 C2.62488281 1.4846875 2.24976563 1.969375 1.86328125 2.46875 C-1.71491472 7.1555558 -4.96265326 11.94671516 -8 17 C-8.33 16.34 -8.66 15.68 -9 15 C-7.96860223 12.7539762 -6.89276713 10.64943191 -5.6875 8.5 C-5.36587891 7.90574219 -5.04425781 7.31148438 -4.71289062 6.69921875 C-3.31943022 4.16409367 -2.05550458 2.05550458 0 0 Z " fill="#74CEF6" transform="translate(555,425)"/>
<path d="M0 0 C-2.6072902 2.6072902 -5.5359257 3.48026787 -8.9375 4.6875 C-9.88786133 5.04424805 -9.88786133 5.04424805 -10.85742188 5.40820312 C-15.63553144 7.12148952 -15.63553144 7.12148952 -19 6 C-17.3970947 5.18501438 -15.79262722 4.37310073 -14.1875 3.5625 C-13.29417969 3.11003906 -12.40085937 2.65757812 -11.48046875 2.19140625 C-7.44543835 0.25332078 -4.43936649 -0.09865259 0 0 Z " fill="#88D9F3" transform="translate(623,381)"/>
<path d="M0 0 C-1.38132461 3.1268791 -2.97903763 5.19920392 -5.4375 7.5625 C-6.03433594 8.14128906 -6.63117187 8.72007812 -7.24609375 9.31640625 C-8.11427734 10.14978516 -8.11427734 10.14978516 -9 11 C-10.00227014 11.9977247 -11.00305341 12.99695588 -12 14 C-10.63350805 9.99304703 -8.82896473 7.3232826 -6 4.1875 C-4.948125 3.00220703 -4.948125 3.00220703 -3.875 1.79296875 C-2 0 -2 0 0 0 Z " fill="#8ADDF8" transform="translate(570,410)"/>
<path d="M0 0 C0.66 0 1.32 0 2 0 C1.34 5.28 0.68 10.56 0 16 C-0.33 16 -0.66 16 -1 16 C-1.22197585 13.89722877 -1.42713637 11.79267698 -1.625 9.6875 C-1.74101563 8.51574219 -1.85703125 7.34398437 -1.9765625 6.13671875 C-2 3 -2 3 0 0 Z " fill="#5AC6FA" transform="translate(536,470)"/>
<path d="M0 0 C1 2 1 2 0.22265625 4.3828125 C-0.16019531 5.28773438 -0.54304688 6.19265625 -0.9375 7.125 C-1.31777344 8.03507813 -1.69804687 8.94515625 -2.08984375 9.8828125 C-2.39019531 10.58148437 -2.69054687 11.28015625 -3 12 C-3.66 11.67 -4.32 11.34 -5 11 C-3.92289822 6.69159287 -2.96052484 3.36423277 0 0 Z " fill="#2C5BC2" transform="translate(298,548)"/>
<path d="M0 0 C-4.30769231 3.93846154 -4.30769231 3.93846154 -7.8125 4.25 C-8.534375 4.1675 -9.25625 4.085 -10 4 C-6.58908673 0.88145073 -4.68377325 -0.53528837 0 0 Z " fill="#86D0F3" transform="translate(604,388)"/>
<path d="M0 0 C3.93846154 4.30769231 3.93846154 4.30769231 4.25 7.8125 C4.1675 8.534375 4.085 9.25625 4 10 C1.16625119 6.79663178 0.4794463 4.21912747 0 0 Z " fill="#6A9BF5" transform="translate(524,508)"/>
<path d="M0 0 C0.99 0.33 1.98 0.66 3 1 C1.515 4.96 1.515 4.96 0 9 C-0.33 9 -0.66 9 -1 9 C-0.67 6.03 -0.34 3.06 0 0 Z " fill="#77D5FA" transform="translate(543,445)"/>
</svg>
